<?xml version="1.0" encoding="UTF-8"?>
<svg width="1161px" height="513px" viewBox="0 0 1161 513" version="1.1" xmlns="http://www.w3.org/2000/svg" xmlns:xlink="http://www.w3.org/1999/xlink">
    <title>Untitled 47</title>
    <g id="Page-1" stroke="none" stroke-width="1" fill="none" fill-rule="evenodd">
        <g id="logo_color" transform="translate(0.000000, 0.825000)" fill="#00B2E3" fill-rule="nonzero">
            <path d="M51.7,0.175 L9.5,0.175 C4.5,0.175 0,5.175 0,10.775 L0,325.075 C0,330.575 4.5,335.575 9.5,335.575 L51.6,335.575 C56.6,335.575 61.1,330.575 61.1,325.075 L61.1,10.775 C61.2,5.175 56.7,0.175 51.7,0.175 Z" id="Path"></path>
            <path d="M153,0.075 C133.8,0.175 118.2,15.775 118.3,35.075 C118.3,35.175 118.3,35.275 118.3,35.275 C118.1,54.475 133.5,70.275 152.8,70.475 C152.9,70.475 152.9,70.475 153,70.475 C172.4,70.775 188.5,55.275 188.8,35.875 C189.1,16.475 173.6,0.375 154.2,0.075 C153.8,-0.025 153.4,-0.025 153,0.075 Z" id="Path"></path>
            <path d="M174.8,113.475 L132.8,113.475 C127.7,113.475 123.2,117.875 123.2,124.075 L123.2,325.075 C123.2,330.575 127.8,335.575 132.8,335.575 L174.8,335.575 C179.9,335.575 184.4,330.575 184.4,325.075 L184.4,124.075 C184.4,117.875 179.9,113.475 174.8,113.475 Z" id="Path"></path>
            <path d="M1047.2,341.175 C1110,341.175 1161,287.875 1161,223.975 C1161,161.175 1109.9,107.875 1047.2,107.875 C984.5,107.875 933.399853,161.075 933.399853,223.875 C933.3,287.775 984.4,341.175 1047.2,341.175 Z M1047.2,167.875 C1076.6,167.875 1100.5,192.875 1100.5,223.975 C1100.5,255.675 1076.6,281.175 1047.2,281.175 C1017.2,281.175 993.899681,255.675 993.899681,223.975 C993.8,192.875 1017.2,167.875 1047.2,167.875 L1047.2,167.875 Z" id="Shape"></path>
            <path d="M1133.2,451.375 C1126.6,449.675 972.2,410.075 725.9,407.875 L725.9,224.375 C725.9,194.575 750,170.375 779.8,170.375 C809.6,170.375 833.8,194.475 833.8,224.275 C833.8,254.075 809.7,278.275 779.9,278.275 C779.9,278.275 779.8,278.275 779.8,278.275 C763,278.675 749.6,292.675 750.1,309.575 C750.5,325.775 763.6,338.875 779.8,339.275 C843.3,339.275 894.7,287.875 894.7,224.375 C894.7,160.875 843.3,109.475 779.8,109.475 C716.3,109.475 664.9,160.875 664.9,224.375 C664.9,224.375 664.9,224.375 664.9,224.375 L664.9,408.175 C429.5,412.075 282.8,449.675 276.4,451.375 C259.5,455.775 249.5,472.475 254.1,488.775 C258.7,504.975 276.1,514.675 293,510.275 C294.6,509.875 455.4,468.875 704.8,468.875 C953.5,468.875 1114.1,509.675 1116.6,510.275 C1119.3,510.975 1122.1,511.375 1124.9,511.375 C1138.8,511.375 1151.6,502.475 1155.5,488.875 C1160,472.575 1150.1,455.775 1133.2,451.375 Z" id="Path"></path>
            <path d="M295.6,335.575 C300.9,335.575 304.7,330.875 304.7,325.675 L304.7,225.875 C304.7,225.375 304.7,224.975 304.7,224.475 L304.7,224.475 C304.7,224.275 304.7,224.075 304.7,223.875 C304.7,192.775 326.8,167.775 355.1,167.775 C383,167.775 405.5,192.775 405.6,223.875 L405.6,325.575 C405.6,330.775 409.5,335.475 414.8,335.475 L454,335.475 C459.3,335.475 463.2,330.775 463.2,325.575 L463.2,226.375 C463.2,225.475 463.2,224.675 463.2,223.875 C463.2,192.775 485.3,167.875 513.6,167.875 C541.4,167.875 564,192.775 564,223.775 L564,224.075 C564,224.175 564,224.375 564,224.475 L564,224.475 L564,325.575 C564,330.775 567.9,335.475 573.2,335.475 L612.2,335.475 C617.5,335.475 621.3,330.775 621.3,325.575 L621.3,225.775 C621.3,225.275 621.3,224.875 621.3,224.375 L621.3,224.375 C621.3,224.175 621.3,223.975 621.3,223.775 C621.3,161.175 573,107.875 513.6,107.875 C482.3,107.875 454.1,122.675 434.4,145.875 C414.7,122.675 386.5,107.875 355.2,107.875 C296.1,107.875 247.9,160.675 247.5,223.075 L247.5,223.075 L247.5,325.575 C247.5,330.775 251.4,335.475 256.7,335.475 L295.6,335.475 L295.6,335.575 Z" id="Path"></path>
        </g>
    </g>
</svg>